<?xml version="1.0" standalone="no"?>
<!DOCTYPE svg PUBLIC "-//W3C//DTD SVG 20010904//EN"
 "http://www.w3.org/TR/2001/REC-SVG-20010904/DTD/svg10.dtd">
<svg version="1.0" xmlns="http://www.w3.org/2000/svg"
 width="700.000000pt" height="700.000000pt" viewBox="0 0 700.000000 700.000000"
 preserveAspectRatio="xMidYMid meet">
<metadata>
Created by potrace 1.11, written by Peter Selinger 2001-2013
</metadata>
<g transform="translate(0.000000,700.000000) scale(0.100000,-0.100000)"
fill="#000000" stroke="none">
<path d="M0 3500 l0 -3500 3500 0 3500 0 0 3500 0 3500 -3500 0 -3500 0 0
-3500z m6765 0 l0 -3265 -3265 0 -3265 0 -3 3255 c-1 1790 0 3261 3 3268 3 10
662 12 3267 10 l3263 -3 0 -3265z"/>
<path d="M1975 4191 c-205 -24 -220 -28 -219 -46 5 -59 16 -155 18 -155 2 0
83 9 182 20 98 11 189 20 202 20 l22 0 0 -610 0 -610 -217 -2 -218 -3 -3 -82
-3 -83 526 0 525 0 0 85 0 85 -195 0 -195 0 0 705 0 705 -102 -1 c-57 -1 -202
-13 -323 -28z"/>
<path d="M4560 4193 c-118 -14 -218 -28 -223 -32 -8 -8 2 -143 12 -160 5 -7
62 -4 181 9 96 11 187 20 203 20 l27 0 0 -610 0 -610 -220 0 -220 0 0 -85 0
-85 520 0 520 0 0 85 0 85 -190 0 -190 0 0 705 0 705 -102 -1 c-57 -1 -200
-13 -318 -26z"/>
<path d="M2962 3782 c3 -10 103 -271 223 -581 l218 -562 106 3 106 3 202 570
c111 314 202 573 202 578 1 4 -44 7 -99 7 l-99 0 -153 -465 c-83 -256 -155
-465 -158 -465 -3 0 -82 208 -177 463 l-171 462 -102 3 c-96 3 -102 1 -98 -16z"/>
</g>
</svg>
